<?xml version="1.0" encoding="UTF-8"?><svg id="Layer_2" xmlns="http://www.w3.org/2000/svg" viewBox="0 0 401.2 133.25"><defs><style>.cls-1{fill:#e8b82a;}.cls-2{fill:#2d4d65;}.cls-3{fill:#80a4a1;}.cls-4{fill:#e24543;}</style></defs><g id="Layer_1-2"><path class="cls-2" d="M18.24,19.83C30.4,7.4,46,1.19,65.04,1.19c22.73,0,40.12,8.66,52.15,25.98l-20.62,15.27c-3.31-4.63-7.7-8.39-13.19-11.3-5.49-2.91-11.6-4.36-18.34-4.36-11.77,0-21.28,3.8-28.55,11.4-7.27,7.6-10.91,17.29-10.91,29.05s3.63,21.45,10.91,29.05c7.27,7.6,16.79,11.4,28.55,11.4,6.47,0,12.49-1.55,18.04-4.66,5.55-3.1,10.04-6.97,13.48-11.6l20.62,15.86c-12.03,17.32-29.41,25.98-52.15,25.98-19.04,0-34.63-6.21-46.8-18.64C6.08,102.19,0,86.39,0,67.22S6.08,32.26,18.24,19.83Z"/><path class="cls-3" d="M130,3.37c2.64-2.25,5.82-3.37,9.52-3.37s6.74,1.19,9.52,3.57c2.78,2.38,4.16,5.55,4.16,9.52s-1.39,7.4-4.16,9.91c-2.78,2.65-5.95,3.97-9.52,3.97s-6.74-1.29-9.52-3.87-4.16-5.91-4.16-10.01,1.39-7.34,4.16-9.72ZM152.01,40.45l-.2,91.21h-24.79V40.45h24.98Z"/><path class="cls-2" d="M175.48,12.51c7.84-8.34,18.18-12.51,31-12.51s22.6,4.17,30.07,12.51c7.47,8.34,11.21,19.05,11.21,32.12v6.35h-61.63c1.12,5.73,3.61,10.24,7.47,13.54,3.86,3.3,8.46,4.95,13.82,4.95,8.96,0,15.75-3.05,20.35-9.15l15.87,11.58c-3.74,5.48-8.78,9.77-15.13,12.89-6.35,3.11-13.38,4.67-21.1,4.67-12.95,0-23.47-4.23-31.56-12.7-8.09-8.46-12.14-19.17-12.14-32.12s3.92-23.65,11.77-32.12ZM186.49,36.23h39.4c-1.12-5.35-3.33-9.65-6.63-12.89-3.3-3.24-7.56-4.86-12.79-4.86s-9.59,1.59-13.07,4.76c-3.49,3.17-5.79,7.5-6.91,12.98Z"/><path class="cls-2" d="M284.8,40.45v9.12c6.48-7.01,14.54-10.51,24.19-10.51,12.95,0,22.34,4.63,28.16,13.88,6.87-9.25,16.85-13.88,29.94-13.88,9.38,0,17.41,2.87,24.09,8.63,6.67,5.75,10.01,15.17,10.01,28.26v55.72h-24.79v-52.35c0-7.01-1.82-11.86-5.45-14.57-3.64-2.71-7.5-4.06-11.6-4.06s-7.7,1.36-11.2,4.06c-3.5,2.71-5.25,7.57-5.25,14.57v52.35h-24.79v-52.35c0-7.01-1.78-11.86-5.35-14.57-3.57-2.71-7.41-4.06-11.5-4.06s-7.87,1.36-11.3,4.06c-3.44,2.71-5.16,7.57-5.16,14.57v52.35h-24.79V40.45h24.79Z"/><path class="cls-1" d="M244.74,131.66h-19.88c0-8.46-8.58-15.34-19.14-15.34s-19.14,6.88-19.14,15.34h-19.88c0-19.42,17.5-35.22,39.01-35.22s39.01,15.8,39.01,35.22Z"/><rect class="cls-4" x="260.02" y="8" width="134.93" height="20.98"/><rect class="cls-2" x="127.03" y="40.45" width="24.79" height="91.21"/></g></svg>