<?xml version="1.0" encoding="UTF-8"?><svg id="Layer_2" xmlns="http://www.w3.org/2000/svg" viewBox="0 0 225.56 225.5"><defs><style>.cls-1{fill:#00a157;}</style></defs><g id="Layer_1-2"><g id="whRMiY"><path class="cls-1" d="M165.59,38.42v-17.83c0-1.78,3.63-4.41,5.49-4.63,2.72-.33,11.44-.37,14.07.04,2.43.38,4.85,2.99,5.1,5.46l.21,37.2,33.77,26.41c2.79,3.01.97,7.4-3.37,6.58-2.24-.42-7.04-5.9-9.49-7.02v138.88c0,.14-1.84,1.98-1.98,1.98h-45.12c.24-.79,1.22-.45,2.02-1.28.58-.61.91-1.67,1.02-2.5,1.7-17.19.96-35.71,3.17-52.73,1.2-9.21,5.71-18.63,7.93-27.73,3.67-15.01,4.12-38.66,3.04-54.22-.54-7.81-4.43-13.96-12.33-15.85-4.71-1.12-8.1,0-12.34,2-.15-13.33-13.84-21.06-25.09-13.65-3.63-19.65-31.02-16.8-31.26,3.08-6.16-3.36-13.26-3.44-18.89,1.14-2.75,2.24-5.76,7.89-5.76,11.41v7.7c1.04-.68,6.43-2.01,6.84-2.62.89-1.34-.68-6.17,1.32-9.24,3.61-5.54,12.18-5.46,15.54.27,1.71,2.91.28,5.62,1.02,7.79.1.3,3.75,3.23,4.51,4.29l2.46,4.8v-28.83c0-2.33,4.55-6.01,6.86-6.34,5.7-.82,10.33,2.26,10.77,8.09,1.23,16.48-.97,34.46,0,51.1-.53,6.27-7.49,9.76-13.09,6.89-1.5-.76-4.53-3.91-4.53-5.59v-14.75l-2.43,7.92c-2.33,6.64-10.51,15.73-16.27,17.95-.45.17-2.16.08-2.87.55-.24.3.71.77,1.07.91,5.28,1.98,13.67-.44,16.76-5.31.67-.28,1.01,1.08,1.73,1.78,1.34,1.28,5.32,3.44,7.18,3.83,4.76,1.01,9.9-.19,13.74-3.22.48-.37,1.85-2.37,2-2.4.95-.14.68.85,1.51,1.56s1.96,1.39,2.89,1.99c6.16,3.97,13.67,2.85,19.19-1.96.64-.56.78-1.53.85-1.58.24-.17,3.64,3.27,4.43,3.74.09.05,1.21.43,1.65.61,6.07,2.47,9.67,1.88,15.49-.82-.17,15.42-8.78,29.78-10.56,44.68-2.06,17.28-1.46,35.47-3.45,52.83.02.78.46,1.88.99,2.45.79.84,1.78.49,2.02,1.28h-85.4c.3-.85,1.86-.66,2.51-1.45.35-.42.47-.91.53-1.44-.49-13.91,6.12-31.15-1.81-43.48-7.51-11.69-19.07-22.78-26.24-34.5-1.9-3.11-2.3-5.41-1.81-9.12.55-4.15,4.04-14.46,5.48-18.97,1.86-5.83,3.32-12.17,9.21-15.2,5.74-2.95,15.6-5.71,22.02-7.92.85-.29,5.67-2.04,5.95-1.75-.46,8.95-3.38,16.68-12.17,20.18-5.47,2.18-9,.45-11.41,7.08-1.03,2.83-3.09,9.44-3.52,12.34-1.29,8.73,7.62,8.33,13.31,10.94,10.56,4.85,19.42,15.76,20.38,27.6.23,2.82-.68,8.03.75,10.22,1.05,1.61,3.63,1.76,5,.36,2.15-2.2.81-12.1.22-15.22-3.09-16.23-17.3-29.01-33.25-32.12.84-1.59,3.05-12.71,3.58-13.14.21-.17,4.36-.67,5.33-.98.14-.04,2.11-.87,2.52-1.05,8.56-3.8,13.7-10.73,15.29-19.95.7-4.03,1.36-9.09-2.49-11.77-3.28-2.28-5.84-.9-9.16.12-7.07,2.17-16.75,5.33-23.42,8.27-10.56,4.66-11.64,11.79-14.8,21.78-1.46,4.61-3.52,10.7-4.79,15.85-1.48,6.04-1.23,10.53,2.06,15.99,6.99,11.63,19.35,23.07,26.52,34.66,6.12,9.88-.12,27.94.68,39.38.04.7.21,1.42.68,1.96.82.93,2.08.45,2.41,1.33H16.14c-.14,0-1.98-1.84-1.98-1.98V84.64c-3.2,1.53-7.22,7.23-10.79,7.09-4.18-.16-4.38-5.38-1.1-7.31L106.19,2.13c3.86-2.93,9.24-2.75,13.15,0,14.63,11.26,28.68,23.38,43.4,34.51.83.63,1.81,1.64,2.84,1.78Z"/><path class="cls-1" d="M134.84,118.44c-.59-.75-.69-2.76-2.62-3.07l-.05-45.01c2.06-9.29,15.38-9.3,17.53,0v43.07c-2.18,6.25-8.35,8.43-14.07,4.96-.22-.13-.73.12-.79.04Z"/><path class="cls-1" d="M173.34,116.18c-.14.24-2.63,2.36-2.94,2.54-5.32,3.17-11.48.77-13.42-5.01.49-9.03-1.35-20.49-.16-29.26,1.17-8.64,15.09-9.45,17.37-.72-.24,9.12.99,19.44.21,28.44-.1,1.17-.51,3.01-1.07,4.01Z"/></g></g></svg>